<?xml version="1.0" encoding="utf-8"?>
<!-- Generator: Adobe Illustrator 21.1.0, SVG Export Plug-In . SVG Version: 6.00 Build 0)  -->
<svg version="1.1" id="Layer_1" xmlns="http://www.w3.org/2000/svg" xmlns:xlink="http://www.w3.org/1999/xlink" x="0px" y="0px"
	 viewBox="0 0 256 361" style="enable-background:new 0 0 256 361;" xml:space="preserve">
<style type="text/css">
	.st0{fill:#90A9B7;}
	.st1{fill:#EFD09E;}
	.st2{fill:#EBEBEB;}
	.st3{fill:#D2D8B3;}
	.st4{fill:#FFFFFF;}
</style>
<path class="st0" d="M127.8,360.1L23.7,331.2L0.4,70.8h255.1l-23.2,260.4L127.8,360.1L127.8,360.1z"/>
<path class="st1" d="M212.4,314.5l19.9-222.5H128V338L212.4,314.5L212.4,314.5z"/>
<path class="st2" d="M53.7,188.6l2.9,31.9H128v-31.9H53.7L53.7,188.6z"/>
<path class="st2" d="M47.9,124l2.9,31.9H128V124H47.9L47.9,124z"/>
<path class="st2" d="M128,271.6l-0.1,0L92.3,262L90,236.5H58l4.5,50.1l65.4,18.2l0.1,0V271.6L128,271.6z"/>
<path class="st3" d="M60.5,0h38.7v16.2H76.7v16.2h22.5v16.2H60.5V0L60.5,0z"/>
<path class="st3" d="M106.9,0h38.7v14.1h-22.5v2.8h22.5v32.4h-38.7V34.5h22.5v-2.8h-22.5V0L106.9,0z"/>
<path class="st3" d="M153.3,0H192v14.1h-22.5v2.8H192v32.4h-38.7V34.5h22.5v-2.8h-22.5V0L153.3,0z"/>
<path class="st4" d="M202.1,188.6l5.8-64.6h-80v31.9h45l-2.9,32.7h-42.1v31.9h39.3l-3.7,41.4l-35.6,9.6v33.2l65.5-18.1l0.5-5.4
	l7.5-84.1L202.1,188.6L202.1,188.6z"/>
</svg>
