<?xml version="1.0" encoding="utf-8"?>
<!-- Generator: Adobe Illustrator 21.1.0, SVG Export Plug-In . SVG Version: 6.00 Build 0)  -->
<svg version="1.1" id="Layer_1" xmlns="http://www.w3.org/2000/svg" xmlns:xlink="http://www.w3.org/1999/xlink" x="0px" y="0px"
	 viewBox="0 0 256 344" style="enable-background:new 0 0 256 344;" xml:space="preserve">
<style type="text/css">
	.st0{fill:#EFD09E;}
	.st1{fill:#90A9B7;}
	.st2{fill:#D4AA7D;}
	.st3{fill:#E78724;}
	.st4{fill:#FDC168;}
	.st5{fill:#FFFFFF;}
	.st6{fill:#C9C9C9;}
	.st7{fill:#463014;}
	.st8{fill:#272727;}
</style>
<path class="st0" d="M17.3,83.4c0,0,5.9,22.7,6.7,30.2c0.8,7.6-15.1,24.3-15.1,32.7s3.4,23.5,21.8,31.1c18.5,7.6,21,26.9,21,38.6
	c0,11.7-6.7,34.4-6.7,34.4s-4.2,56.2,18.5,66.3c22.7,10.1,17.6,10.1,22.7,10.1c5,0,42,15.1,63.8,9.2c21.8-5.9,27.7-12.6,27.7-12.6
	s21.8,1.7,28.5-17.6c6.7-19.3,10.9-59.6,8.4-78c-2.5-18.5-5.9-42.8,9.2-51.2c15.1-8.4,31.1-18.5,28.5-26.9
	c-2.5-8.4-15.9-20.1-15.9-20.1s-3.4-21-0.8-26c2.5-5,17.6-17.6,9.2-26.9c-8.4-9.2-23.5-9.2-23.5-9.2l-19.3,1.7
	c0,0-32.7-29.4-75.5-27.7c-42.8,1.7-69.7,27.7-69.7,27.7s-14.3-5-26.9,0C17.3,74.1,14.8,69.1,17.3,83.4L17.3,83.4L17.3,83.4z"/>
<path class="st1" d="M101.9,155.6c0,0-5,12.5-7.8,19.1c-3,7.2-14.3,10.8-14.3,10.8s5.9-6.2,5.9-21.8c0-6.6,8.5-9.2,8.5-9.2
	L101.9,155.6L101.9,155.6z"/>
<path class="st1" d="M96.8,162.7c0,0-10.3,12.2-29.3,5.4c-19.1-6.8-21-31.3-21-38.1c0-6.8,36.2,6.8,41.1,9.8
	C92.4,142.7,101.7,154.4,96.8,162.7L96.8,162.7L96.8,162.7z"/>
<path class="st1" d="M24.8,32.2c0,0,17.6-3.4,29.3,5.9c11.7,9.3,15.1,16.6,15.1,16.6L49.5,70.3c0,0-9.6-4.4-12.5-17.1
	C34.1,40.5,36.1,34.6,24.8,32.2L24.8,32.2L24.8,32.2z"/>
<path class="st1" d="M91.7,127.4c-7.6-10.8-20.1-15.4-30-16.2c-17-1.3-25.1,4.7-25.1,4.7s27.8,1.2,35.9,11.7
	c14.9,19.6,36.7,21.2,40.2,16.9c-4,0.2-8.5-1.8-13.2-6.3C96.5,135.4,94.1,130.8,91.7,127.4L91.7,127.4L91.7,127.4z"/>
<path class="st2" d="M128.2,319.4c-39.8,0-53.3-20.2-53.3-20.2l6.2,15.1c2.4,6.6,27.4,26.9,47,26.9"/>
<path class="st3" d="M79.3,285.6c0,0,3.7,22.4,18.3,22.4c12.5,0,16.1-18.9,16.1-22.8L79.3,285.6L79.3,285.6z"/>
<path class="st1" d="M19.5,153.8c0,0,8.3-2.9,10.8-21c2.4-18.1-2.9-33.7-2.9-33.7s0.5,24.9-2.4,29.8c-2.9,4.9-5.4,6.4-8.8,12.7
	C12.6,147.9,17.5,151.8,19.5,153.8L19.5,153.8L19.5,153.8z"/>
<path class="st4" d="M29.4,36.4l-1.7-1.1C22.7,35.5,29.4,36.4,29.4,36.4L29.4,36.4L29.4,36.4z"/>
<path class="st2" d="M91.9,45.9c0,0-7.8-1.3-11.7-7.2c-3.9-5.9-15-17.6-32.6-17.7c-17.7-0.1-35.1,4.7-35.1,4.7l15.2,9.6
	c1.6-0.1,4.4,0,9.1,0.1C55.9,36.1,58.9,55,58.9,55l67.4-9.3"/>
<path class="st5" d="M98.5,150.5c0,0-9.1,9.1-23.1,6.2c-14-2.9-22.5-9.1-23.1-19.9c-0.7-10.8,2.9-15,2.9-15s15.6,4.9,23.1,11.4
	C85.8,139.7,91.3,150.1,98.5,150.5L98.5,150.5L98.5,150.5z"/>
<path class="st6" d="M87.4,147.2c0,0-7.9,3.6-16.8,0.7C59.1,144,58.3,132,58.3,132s-7.1,20.8,12.8,24.9c16,3.2,25.4-6,25.4-6
	L87.4,147.2L87.4,147.2z"/>
<path class="st7" d="M35.7,68.7c-6.5-5.4-1.6-10.3-2.2-16.4c-0.3-3.2-0.5-6.3-1.6-8C26,35,12,32.1,11.8,32.1l-6.6-1.3l4.4-5.1
	c0.6-0.7,18.4-17.7,46.1-8.8c19.4,6.2,33.7,27.4,34.2,28.3l-9.7,4.6c-0.1-0.2-11.4-20.1-28-25.4c-13.4-4.3-25.8-0.2-31.1,2.5
	c5.6,2.2,13,6.3,17.4,13.3c2.1,3.3,2.4,7.5,2.8,11.5c0.4,5.3,0.9,10.4,4.8,13.6L35.7,68.7L35.7,68.7z"/>
<path class="st7" d="M61.3,58.5c0,0-2.6-11.4-9.8-17.2c-10.2-8.1-22.6-3.8-22.7-3.8l-1.8-5.6c0.6-0.2,14.8-4.7,27.9,4.5
	c13.2,9.3,14.8,17.7,14.9,18.6L61.3,58.5L61.3,58.5z"/>
<path class="st8" d="M44,139.7c0,0-4.3-6.1-3.5-12.8c0.4-3.3,1.9-6.7,4.7-7.9c5.1-2.2,7.4,3.5,7.4,3.5S45.3,124.2,44,139.7L44,139.7
	L44,139.7z"/>
<path class="st8" d="M90.8,149c0.2,0.3,0.3,0.5,0.3,0.5s-13.3,10-26.9-0.1c-7.3-5.4-6.6-18.9-4.4-24.6c5.8,1.3,10.7,3.7,14.9,6.5
	c-5.2-4.6-9.8-8.1-9.8-8.2l-5.9-1.7l-11.5-3.9c-0.1,0.9-4.3,20.6,7.8,34c5.4,5.9,30.6,19.3,42.5-3.5L90.8,149L90.8,149z"/>
<path class="st8" d="M89.6,150.4c7.5,11.4,26.4,4.9,26.1-7.2c0,0-12.6,7-23.8-5.9c-6.5-7.5-27.4-28.2-55.7-21.3
	C55.7,120.4,81.6,138.3,89.6,150.4L89.6,150.4L89.6,150.4z"/>
<path class="st7" d="M35.7,68.7c-6.5-5.4-1.6-10.3-2.2-16.4c-0.3-3.2-0.5-6.3-1.6-8C26,35,12,32.1,11.8,32.1l-6.6-1.3l4.4-5.1
	c0.6-0.7,18.4-17.7,46.1-8.8c19.4,6.2,33.7,27.4,34.2,28.3l-9.7,4.6c-0.1-0.2-11.4-20.1-28-25.4c-13.4-4.3-25.8-0.2-31.1,2.5
	c5.6,2.2,13,6.3,17.4,13.3c2.1,3.3,2.4,7.5,2.8,11.5c0.4,5.3,0.9,10.4,4.8,13.6L35.7,68.7L35.7,68.7z"/>
<path class="st8" d="M87,330.1c-37.1-2.9-50.2-37.9-50.2-45.2l9.7,0l-4.8,0h4.8c0,3.2,9.9,33.2,41.2,35.6L87,330.1L87,330.1z"/>
<path class="st8" d="M35.5,69.8l-0.4-0.3c-4.8-4-3.9-7.9-3.1-11.7c0.4-1.7,0.8-3.6,0.6-5.4c-0.3-3.1-0.5-6.1-1.4-7.5
	C25.5,35.9,11.8,33.1,11.7,33l-8.2-1.6l5.4-6.4C9,25,20.5,13.4,39.9,13.4c5.3,0,10.7,0.9,16.1,2.6c20.2,6.5,34.6,28.5,34.7,28.7
	l0.6,0.9L79.9,51l-0.5-0.7c-1.2-2.1-12.1-20.1-27.5-25c-3.8-1.2-7.8-1.8-11.8-1.8c-7.4,0-13.4,2-16.5,3.4
	c5.3,2.4,11.8,6.4,15.9,12.9c2.2,3.5,2.6,7.8,2.9,11.9c0.4,5.1,0.8,10,4.5,13l1.4,1.1L35.5,69.8L35.5,69.8z"/>
<path class="st8" d="M61.3,58.5c0,0-2.6-11.4-9.8-17.2c-10.2-8.1-22.6-3.8-22.7-3.8l-1.8-5.6c0.6-0.2,14.8-4.7,27.9,4.5
	c13.2,9.3,14.8,17.7,14.9,18.6L61.3,58.5L61.3,58.5z"/>
<path class="st8" d="M60.6,59.9l-0.3-1.1c0-0.1-2.6-11.1-9.5-16.6c-3.9-3.1-8.7-4.7-14.1-4.7c-4.2,0-7.4,1-7.7,1.1l-0.9,0.3
	l-2.4-7.4l0.9-0.3c0.4-0.1,4.2-1.3,9.5-1.3c7,0,13.7,2.1,19.3,6C68.9,45.3,70.6,54.1,70.7,55l0.1,0.8L60.6,59.9L60.6,59.9z
	 M36.8,35.5c5.8,0,11.1,1.8,15.3,5.1c6.1,4.9,9,13.5,9.9,16.6l6.6-2.6c-0.6-2.3-3.3-9.4-14.3-17.2c-5.3-3.7-11.4-5.6-18.1-5.6
	c-3.7,0-6.6,0.6-8,0.9l1.2,3.7C30.8,36.1,33.5,35.5,36.8,35.5L36.8,35.5L36.8,35.5z"/>
<path class="st8" d="M100,151.1l-10.4-0.7c0,0,2.7,4.7,4.4,10.8c1.9,6.9-1.8,16.9-1.8,16.9S106.1,162.4,100,151.1L100,151.1
	L100,151.1z"/>
<path class="st5" d="M76.6,267.3c-0.6-3.4-0.6-6.5,0.1-9.7c-2.8-2.1-7.9-2.9-11.7-4.1c-3.1-2-19,2-30.5-11.9
	C20,224.1,23,213.7,23,213.7c-3.7,4.1-7.3,2.5-12.9,21.7c-5.7,19.2,2.7,32.6,18.1,46c7.3,6.3,17.7,9,26.5,10c-3-3,5.1-3.3,10.6-5.4
	c-0.4-4.5,0.3-8.8,3.6-12.4c2-2.1,4.6-3.4,7.3-4.4c0.2-0.3,0.3-0.7,0.4-1C76.7,267.9,76.6,267.6,76.6,267.3L76.6,267.3L76.6,267.3z"
	/>
<path class="st6" d="M65.4,285.8c-0.3-0.9-0.6-1.9-0.8-2.9c-0.3-1.1-1.5-4,0-0.6c-0.4-0.9-0.7-1.8-0.9-2.7
	c-25.1,0-46.9-17.2-42.7-53.4c-3.3-4.4-7.9,8.8-7.9,8.8S0.6,271.5,33,285.6c10.8,4.7,20.3,8.1,22.6,6.7c4.7,1,8.9-2.3,10.5-4.5
	C65.9,287.2,65.6,286.5,65.4,285.8L65.4,285.8L65.4,285.8z"/>
<path class="st1" d="M154.3,155.6c0,0,5,12.5,7.8,19.1c3,7.2,14.3,10.8,14.3,10.8s-5.9-6.2-5.9-21.8c0-6.6-8.5-9.2-8.5-9.2
	L154.3,155.6L154.3,155.6z"/>
<path class="st1" d="M159.3,162.7c0,0,10.3,12.2,29.3,5.4c19.1-6.8,21-31.3,21-38.1c0-6.8-36.2,6.8-41.1,9.8
	C163.7,142.7,154.5,154.4,159.3,162.7L159.3,162.7L159.3,162.7z"/>
<path class="st1" d="M231.3,32.2c0,0-17.6-3.4-29.3,5.9c-11.7,9.3-15.2,16.6-15.2,16.6l19.8,15.7c0,0,9.6-4.4,12.5-17.1
	C222,40.5,220.1,34.6,231.3,32.2L231.3,32.2L231.3,32.2z"/>
<path class="st1" d="M164.5,127.4c7.6-10.8,20.1-15.4,30-16.2c17-1.3,25.1,4.7,25.1,4.7s-27.8,1.2-35.9,11.7
	c-14.9,19.6-36.7,21.2-40.2,16.9c4,0.2,8.5-1.8,13.2-6.3C159.7,135.4,162.1,130.8,164.5,127.4L164.5,127.4L164.5,127.4z"/>
<path class="st2" d="M128,319.4c39.8,0,53.3-20.2,53.3-20.2l-6.2,15.1c-2.4,6.6-27.4,26.9-47,26.9"/>
<path class="st3" d="M176.9,285.6c0,0-3.7,22.4-18.3,22.4c-12.5,0-16.1-18.9-16.1-22.8L176.9,285.6L176.9,285.6z"/>
<g>
	<path class="st1" d="M94,208.3c0,0-16.6,25.4-28.8,43.4c-1.9,2.8,12.2,3,12.2,3L94,208.3L94,208.3z"/>
	<path class="st1" d="M44.7,165.4c0,0-30.9-10.6-25-21.4c5.9-10.8,1.2-16.6,1.2-16.6S3.7,140.3,8,154c2.7,8.4,7.2,14.5,32.1,26.1
		c11.9,22.2,2.5,62.1,3,62.2c0.9,0.3,16.8-7.8,15.7-45.1C58.5,185.8,57.6,170.1,44.7,165.4L44.7,165.4L44.7,165.4z"/>
	<path class="st1" d="M54.9,251.8c1.3-3.6,5.9-18.1,7.3-31.3c1.8-15.8,1.1-38.9,1.1-38.9s-3.9,15.2-7.3,17.6
		c-3.4,2.4-9.8,19.1-9.8,19.1s-3.4,24.7-5,33C45.7,252.2,49.4,249.6,54.9,251.8L54.9,251.8L54.9,251.8z"/>
	<path class="st1" d="M18.5,146.9c0,0,8.1-10.1,10.5-29.7c0.9-7.7-0.7-23-3.4-28.8c0.5,14.4-3.2,28.8-3.2,28.8S19.9,144,18.5,146.9
		L18.5,146.9L18.5,146.9z"/>
	<path class="st1" d="M162.2,208.3c0,0,16.6,25.4,28.8,43.4c1.9,2.8-12.2,3-12.2,3L162.2,208.3L162.2,208.3z"/>
	<path class="st1" d="M211.5,165.4c0,0,30.9-10.6,25-21.4c-5.9-10.8-1.2-16.6-1.2-16.6s17.2,12.9,12.8,26.6
		c-2.7,8.4-7.2,14.5-32.1,26.1c-11.9,22.2-2.5,62.1-3,62.2c-0.9,0.3-16.8-7.8-15.7-45.1C197.6,185.8,198.6,170.1,211.5,165.4
		L211.5,165.4L211.5,165.4z"/>
	<path class="st1" d="M201.3,251.8c-1.3-3.6-5.9-18.1-7.3-31.3c-1.8-15.8-1.1-38.9-1.1-38.9s3.9,15.2,7.3,17.6
		c3.4,2.4,9.8,19.1,9.8,19.1s3.4,24.7,5,33C210.5,252.2,206.7,249.6,201.3,251.8L201.3,251.8L201.3,251.8z"/>
	<path class="st1" d="M236.7,153.8c0,0-8.3-2.9-10.8-21c-2.4-18.1,2.9-33.7,2.9-33.7s-0.5,24.9,2.4,29.8c2.9,4.9,5.4,6.4,8.8,12.7
		C243.5,147.9,238.7,151.8,236.7,153.8L236.7,153.8L236.7,153.8z"/>
</g>
<path class="st4" d="M226.8,36.4l1.7-1.1C233.5,35.5,226.8,36.4,226.8,36.4L226.8,36.4L226.8,36.4z"/>
<path class="st2" d="M164.2,45.9c0,0,7.8-1.3,11.7-7.2c3.9-5.9,15-17.6,32.6-17.7c17.7-0.1,35.1,4.7,35.1,4.7l-15.2,9.6
	c-1.6-0.1-4.4,0-9.1,0.1C200.2,36.1,197.3,55,197.3,55l-67.4-9.3"/>
<path class="st5" d="M157.7,150.5c0,0,9.1,9.1,23.1,6.2c14-2.9,22.5-9.1,23.1-19.9c0.7-10.8-2.9-15-2.9-15s-15.6,4.9-23.1,11.4
	C170.4,139.7,164.9,150.1,157.7,150.5L157.7,150.5L157.7,150.5z"/>
<path class="st6" d="M168.8,147.2c0,0,7.9,3.6,16.8,0.7c11.6-3.9,12.4-15.9,12.4-15.9s7.1,20.8-12.8,24.9c-16,3.2-25.4-6-25.4-6
	L168.8,147.2L168.8,147.2z"/>
<path class="st7" d="M220.5,68.7c6.5-5.4,1.6-10.3,2.2-16.4c0.3-3.2,0.5-6.3,1.6-8c5.9-9.4,20-12.2,20.1-12.3l6.6-1.3l-4.4-5.1
	c-0.6-0.7-18.4-17.7-46.1-8.8c-19.3,6.2-33.7,27.4-34.2,28.3l9.7,4.6c0.1-0.2,11.4-20.1,28-25.4c13.4-4.3,25.8-0.2,31.1,2.5
	c-5.6,2.2-13,6.3-17.4,13.3c-2.1,3.3-2.4,7.5-2.8,11.5C214.4,57,214,62,210,65.3L220.5,68.7L220.5,68.7z"/>
<path class="st1" d="M237.7,146.9c0,0-8.1-10.1-10.5-29.7c-0.9-7.7,0.7-23,3.4-28.8c-0.5,14.4,3.2,28.8,3.2,28.8
	S236.2,144,237.7,146.9L237.7,146.9L237.7,146.9z"/>
<path class="st7" d="M194.8,58.5c0,0,2.6-11.4,9.8-17.2c10.2-8.1,22.6-3.8,22.7-3.8l1.8-5.6c-0.6-0.2-14.8-4.7-27.9,4.5
	c-13.2,9.3-14.8,17.7-14.9,18.6L194.8,58.5L194.8,58.5z"/>
<path class="st8" d="M212.2,139.7c0,0,4.3-6.1,3.5-12.8c-0.4-3.3-1.9-6.7-4.7-7.9c-5.1-2.2-7.4,3.5-7.4,3.5S210.8,124.2,212.2,139.7
	L212.2,139.7L212.2,139.7z"/>
<path class="st8" d="M165.3,149c-0.2,0.3-0.3,0.5-0.3,0.5s13.3,10,26.9-0.1c7.3-5.4,6.6-18.9,4.4-24.6c-5.8,1.3-10.7,3.7-14.9,6.5
	c5.2-4.6,9.8-8.1,9.8-8.2l5.9-1.7l11.5-3.9c0.1,0.9,4.3,20.6-7.8,34c-5.4,5.9-30.6,19.3-42.5-3.5L165.3,149L165.3,149z"/>
<path class="st8" d="M166.6,150.4c-7.5,11.4-26.4,4.9-26.1-7.2c0,0,12.6,7,23.8-5.9c6.5-7.5,27.4-28.2,55.7-21.3
	C200.5,120.4,174.6,138.3,166.6,150.4L166.6,150.4L166.6,150.4z"/>
<path class="st7" d="M220.5,68.7c6.5-5.4,1.6-10.3,2.2-16.4c0.3-3.2,0.5-6.3,1.6-8c5.9-9.4,20-12.2,20.1-12.3l6.6-1.3l-4.4-5.1
	c-0.6-0.7-18.4-17.7-46.1-8.8c-19.3,6.2-33.7,27.4-34.2,28.3l9.7,4.6c0.1-0.2,11.4-20.1,28-25.4c13.4-4.3,25.8-0.2,31.1,2.5
	c-5.6,2.2-13,6.3-17.4,13.3c-2.1,3.3-2.4,7.5-2.8,11.5C214.4,57,214,62,210,65.3L220.5,68.7L220.5,68.7z"/>
<path class="st8" d="M208.1,65.7l1.4-1.1c3.6-3,4-7.8,4.5-13c0.4-4.1,0.7-8.4,2.9-11.9c4.1-6.4,10.5-10.5,15.9-12.9
	c-3.2-1.3-9.2-3.4-16.5-3.4c-4.1,0-8.1,0.6-11.8,1.8c-15.4,5-26.3,22.9-27.5,25l-0.5,0.7l-11.5-5.4l0.6-0.9
	c0.1-0.2,14.5-22.2,34.7-28.7c5.4-1.7,10.8-2.6,16.1-2.6c19.4,0,30.9,11.6,31,11.7l5.4,6.4l-8.2,1.6c-0.1,0-13.8,2.9-19.5,11.8
	c-0.9,1.5-1.2,4.4-1.4,7.5c-0.2,1.9,0.2,3.7,0.6,5.4c0.8,3.8,1.7,7.7-3.1,11.7l-0.4,0.3L208.1,65.7L208.1,65.7z"/>
<path class="st8" d="M194.8,58.5c0,0,2.6-11.4,9.8-17.2c10.2-8.1,22.6-3.8,22.7-3.8l1.8-5.6c-0.6-0.2-14.8-4.7-27.9,4.5
	c-13.2,9.3-14.8,17.7-14.9,18.6L194.8,58.5L194.8,58.5z"/>
<path class="st8" d="M185.3,55.8l0.1-0.8c0.1-1,1.8-9.7,15.3-19.2c5.6-3.9,12.2-6,19.3-6c5.3,0,9.1,1.2,9.5,1.3l0.9,0.3l-2.4,7.4
	l-0.9-0.3c-0.3-0.1-3.5-1.1-7.7-1.1c-5.4,0-10.2,1.6-14.1,4.7c-6.9,5.5-9.5,16.5-9.5,16.6l-0.3,1.1L185.3,55.8L185.3,55.8z
	 M226.8,36.4l1.2-3.7c-1.4-0.4-4.3-0.9-8-0.9c-6.7,0-12.8,1.9-18.1,5.6c-11.1,7.8-13.7,14.8-14.3,17.2l6.7,2.6
	c0.9-3.1,3.8-11.7,9.9-16.6c4.2-3.4,9.5-5.1,15.3-5.1C222.7,35.5,225.4,36.1,226.8,36.4L226.8,36.4L226.8,36.4z"/>
<g>
	<path class="st8" d="M97,302.6L97,302.6c-2.9,0-5.8-1-7.9-2.8c-1.6-1.3-6.9-6.2-9.2-12.2c-0.9-2.2-0.7-4,0.6-5.3
		c0.9-0.9,2.7-1.9,6.3-1.9l2.6,0c3.1,0,8.3,0,12.8,0h4.3c2.8,0,4.8,0.6,5.9,1.8c1.5,1.5,1,3.4,0.6,4.5c-0.7,1.8-3.7,7.6-8.7,13
		C102.6,301.5,99.9,302.6,97,302.6L97,302.6L97,302.6z"/>
	<path class="st8" d="M151.8,299.6c-5-5.4-8-11.2-8.7-13c-0.4-1-0.9-2.9,0.6-4.5c1.2-1.2,3.1-1.8,5.9-1.8h4.3c4.5,0,9.7,0,12.8,0
		l2.6,0c3.7,0,5.5,1,6.3,1.9c1.3,1.3,1.5,3.1,0.6,5.3c-2.3,6-7.6,10.8-9.2,12.2c-2,1.8-5,2.8-7.9,2.8l0,0
		C156.2,302.6,153.6,301.5,151.8,299.6L151.8,299.6L151.8,299.6z"/>
</g>
<path class="st8" d="M156.2,151.1l10.4-0.7c0,0-2.7,4.7-4.4,10.8c-1.9,6.9,1.8,16.9,1.8,16.9S150.1,162.4,156.2,151.1L156.2,151.1
	L156.2,151.1z"/>
<path class="st1" d="M128.1,113.9c-6.6,0-15.3-0.2-21.8-4.9c0,0,8.5,14.9,21.8,14.9l0-1.9l0,1.9c13.3,0,21.8-14.9,21.8-14.9
	C143.4,113.7,134.7,113.9,128.1,113.9L128.1,113.9L128.1,113.9z"/>
<path class="st8" d="M93,41.5c-0.9-17.9,13.8-32.1,18.9-32.7c0.3,3-0.3,14.8,4.8,18.5c1.5-9.7,6.5-20.3,26.2-27.3
	c-4.2,11.2-0.6,20.6,1.2,24.9c13.5-12.2,22.6-10.2,22.6-10.2s-9.4,16.2-5.7,26.8C133.9,39.4,93.2,44.4,93,41.5L93,41.5L93,41.5z"/>
<path class="st8" d="M33.5,182.6c1.8,1,8.2,7.6,8.2,17.5c0,4.9-0.5,29.7-2.9,44.9c3.7,2.4,6.2,2.9,9.9,5.3c1.8-17.5,3.1-43,2.5-53.2
	c-0.7-11.7-7-19.6-12.8-22.9c-1.8-1-3.7-2.1-5.6-3.1c-10-5.4-20.2-10.9-20.2-20.4c0-7.4,2.9-9.8,5.9-12.2l0.3-0.3
	c2-1.6,4.3-3.5,5.7-6.6c3.7-8.3,4.3-29.6,0-35c-2.2-2.7-7.9-11.7-6.3-17.8c0.6-2.3,2.1-4,4.5-5.3c2.5-1.3,5.9-1.9,10.1-1.9
	c8.2,0,17.3,2.5,22,4c16.8,5.3,37.1,20.7,42.9,25.3c0.2,0.1,0.3,0.2,0.3,0.2l3.7,2.6l-2.3-3.9c-0.1-0.2-14.9-24.5-41.2-33.4
	c-5.1-1.7-15.2-4.6-25.1-4.6c-5.9,0-10.9,1-14.9,3.1c-4.8,2.5-8.1,6.4-9.5,11.4c-3.3,12.2,7.5,25.8,7.9,26.2
	c1.3,2.3,1.8,18.6-1.1,25.2c-0.4,0.9-1.5,1.8-2.9,2.9c-0.4,0.4-0.9,0.7-1.4,1.1c-4.1,3.1-10.3,7.8-10.3,18.6
	c0,14.8,15,22.8,27.1,29.3C29.9,180.6,31.8,181.6,33.5,182.6L33.5,182.6L33.5,182.6z"/>
<path class="st8" d="M222.6,182.6c-1.8,1-8.2,7.6-8.2,17.5c0,4.9,0.5,29.7,2.9,44.9c-3.7,2.4-6.2,2.9-9.9,5.3
	c-1.8-17.5-3.1-43-2.5-53.2c0.7-11.7,7-19.6,12.8-22.9c1.8-1,3.7-2.1,5.6-3.1c10-5.4,20.2-10.9,20.2-20.4c0-7.4-2.9-9.8-6-12.2
	l-0.3-0.3c-2-1.6-4.3-3.5-5.7-6.6c-3.7-8.3-4.3-29.6,0-35c2.2-2.7,7.9-11.7,6.3-17.8c-0.6-2.3-2.1-4-4.5-5.3
	c-2.5-1.3-5.9-1.9-10.1-1.9c-8.2,0-17.3,2.5-22,4c-16.8,5.3-37.1,20.7-42.9,25.3c-0.2,0.1-0.3,0.2-0.3,0.2l-3.7,2.6l2.3-3.9
	c0.1-0.2,14.9-24.5,41.2-33.4c5.1-1.7,15.2-4.6,25.1-4.6c5.9,0,10.9,1,14.9,3.1c4.8,2.5,8.1,6.4,9.5,11.4
	c3.3,12.2-7.5,25.8-7.9,26.2c-1.3,2.3-1.8,18.6,1.1,25.2c0.4,0.9,1.5,1.8,2.9,2.9c0.4,0.4,0.9,0.7,1.4,1.1
	c4.1,3.1,10.3,7.8,10.3,18.6c0,14.8-15,22.8-27.1,29.3C226.2,180.6,224.4,181.6,222.6,182.6L222.6,182.6L222.6,182.6z"/>
<path class="st8" d="M204.7,67c-2.4-4-8.5-11.9-22.6-18.7c-15.7-7.7-33.9-11.5-54-11.6v0h0h0v0c-20.2,0-38.3,3.9-54,11.6
	C59.9,55.1,53.8,62.9,51.4,67l-1,1.4L62.5,71l0.4-0.5l0.2-0.4c0.2-0.8,1.8-5.1,15.2-11.7c14.4-7,31.1-10.6,49.8-10.6
	c18.7,0,35.4,3.6,49.8,10.6c13.4,6.6,15.1,10.9,15.2,11.7l0.2,0.4l0.4,0.5l12.1-2.7L204.7,67L204.7,67z"/>
<path class="st8" d="M169.2,330.1l-0.7-9.7c31.3-2.4,41.2-32.4,41.2-35.6h9.7C219.3,292.2,206.3,327.3,169.2,330.1L169.2,330.1
	L169.2,330.1z"/>
<g>
	<path class="st2" d="M85.2,51.3C72.2,57.9,54.5,67,54.5,67l7,3.5c-0.7,1.1-1,1.7-1,1.7l7.2,3.3c0,0,17.5,12.7,28.2,20.8
		C92.3,85.3,81.8,68,81.8,68S78.8,60.1,85.2,51.3L85.2,51.3L85.2,51.3z"/>
	<path class="st2" d="M171,51.3c12.9,6.6,30.7,15.7,30.7,15.7l-7,3.5c0.7,1.1,1,1.7,1,1.7l-7.2,3.3c0,0-17.5,12.7-28.2,20.8
		c3.6-11,14.1-28.3,14.1-28.3S177.3,60.1,171,51.3L171,51.3L171,51.3z"/>
	<path class="st2" d="M146.4,113.8c-6.7,4-12.6,5.4-18.3,5.6c-5.7-0.1-11.6-1.5-18.3-5.6c0,0,9.7,11.8,18.2,11.9v0c0,0,0,0,0,0
		c0,0,0,0,0,0v0C136.7,125.7,146.4,113.8,146.4,113.8L146.4,113.8L146.4,113.8z"/>
</g>
<path class="st5" d="M179.6,267.3c0.6-3.4,0.6-6.5-0.1-9.7c2.8-2.1,7.9-2.9,11.7-4.1c3.1-2,19,2,30.5-11.9
	c14.4-17.5,11.4-27.9,11.4-27.9c3.7,4.1,7.3,2.5,12.9,21.7c5.7,19.2-2.7,32.6-18.1,46c-7.3,6.3-17.7,9-26.5,10c3-3-5.1-3.3-10.6-5.4
	c0.4-4.5-0.3-8.8-3.6-12.4c-2-2.1-4.6-3.4-7.3-4.4c-0.2-0.3-0.3-0.7-0.4-1C179.5,267.9,179.5,267.6,179.6,267.3L179.6,267.3
	L179.6,267.3z"/>
<path class="st6" d="M190.8,285.8c0.3-0.9,0.6-1.9,0.8-2.9c0.3-1.1,1.5-4,0-0.6c0.4-0.9,0.7-1.8,0.9-2.7c25.1,0,46.9-17.2,42.7-53.4
	c3.3-4.4,7.9,8.8,7.9,8.8s12.6,36.4-19.9,50.6c-10.8,4.7-20.3,8.1-22.6,6.7c-4.7,1-8.9-2.3-10.5-4.5
	C190.3,287.2,190.6,286.5,190.8,285.8L190.8,285.8L190.8,285.8z"/>
<g>
	<path class="st8" d="M76.1,262c0-3.1,0.7-6,2.1-9c0.1-0.2,0.2-0.4,0.3-0.6c-9.6-0.1-20.8-1-30.2-4.8C38,243.5,25,229.3,22.7,212.6
		c0,0-19.6,15.1-13.8,47.5c5.4,30.4,30.8,40.3,59.8,42c0-0.2-3.3-7-2.2-11.1c-16.5,1.2-34.9-5.2-43.8-19.8
		c-8.1-13.4-5.9-36.2-2.5-39.6C28.4,257.3,57.7,262.5,76.1,262L76.1,262L76.1,262z"/>
	<path class="st8" d="M79.2,243.6c-5.2,15.3-15.9,27.7-15.9,27.7s14.7-0.7,15.5-3.3c0.6-1.9,13.2-31.5,18.1-66.1
		C92.3,209.4,79.6,242.3,79.2,243.6L79.2,243.6L79.2,243.6z"/>
	<path class="st8" d="M180,262c0-3.1-0.7-6-2.1-9c-0.1-0.2-0.2-0.4-0.3-0.6c9.6-0.1,20.8-1,30.2-4.8c10.4-4.2,23.4-18.4,25.6-35.1
		c0,0,19.6,15.1,13.8,47.5c-5.4,30.4-30.8,40.3-59.8,42c0-0.2,3.3-7,2.2-11.1c16.5,1.2,34.9-5.2,43.8-19.8
		c8.1-13.4,5.8-36.2,2.5-39.6C227.8,257.3,198.4,262.5,180,262L180,262L180,262z"/>
	<path class="st8" d="M191.8,269.7c-3.5-3.7-9.8-8.2-24.5-8.2c0,0-27.8,0-39.1,0l0,0h0h0c-11.3,0-39.1,0-39.1,0
		c-14.7,0-21,4.5-24.5,8.2c-5,5.4-5.8,13-2.3,22.5c9.3,25.2,22.3,50.8,66,50.9v0c0,0,0,0,0,0c0,0,0,0,0,0v0
		c43.6,0,56.7-25.7,66-50.9C197.6,282.7,196.8,275.1,191.8,269.7L191.8,269.7L191.8,269.7z M185,290.4
		c-4.4,12.7-16.3,43.3-56.9,43.4c-40.6-0.1-52.5-30.7-56.9-43.4c-2.4-7-2.3-12.2,0.6-15.5c1.9-2.2,6.4-4.8,16.5-4.8l10.6,0
		c7.8,0,17.6,0,29.2,0c11.6,0,21.4,0,29.2,0l10.6,0c10.1,0,14.6,2.6,16.5,4.8C187.2,278.2,187.4,283.4,185,290.4L185,290.4
		L185,290.4z"/>
	<path class="st8" d="M177,243.6c5.2,15.3,15.9,27.7,15.9,27.7s-14.7-0.7-15.5-3.3c-0.6-1.9-13.2-31.5-18.1-66.1
		C163.9,209.4,176.6,242.3,177,243.6L177,243.6L177,243.6z"/>
</g>
</svg>
