<?xml version="1.0" encoding="utf-8"?>
<!-- Generator: Adobe Illustrator 21.1.0, SVG Export Plug-In . SVG Version: 6.00 Build 0)  -->
<svg version="1.1" id="Layer_1" xmlns="http://www.w3.org/2000/svg" xmlns:xlink="http://www.w3.org/1999/xlink" x="0px" y="0px"
	 viewBox="0 0 256 361" style="enable-background:new 0 0 256 361;" xml:space="preserve">
<style type="text/css">
	.st0{fill:#90A9B7;}
	.st1{fill:#EFD09E;}
	.st2{fill:#EBEBEB;}
	.st3{fill:#272727;}
	.st4{fill:#FFFFFF;}
</style>
<path class="st0" d="M255.6,70.8l-23.2,260.4l-104.5,29L23.7,331.2L0.4,70.8H255.6L255.6,70.8z"/>
<path class="st1" d="M128,338l84.4-23.4l19.9-222.5H128V338L128,338z"/>
<path class="st2" d="M82.8,155.9H128V124H47.9l0.8,8.6l7.8,88H128v-31.9H85.7L82.8,155.9L82.8,155.9z"/>
<path class="st2" d="M90,236.5H58l4.5,50.1l65.4,18.2l0.1,0v-33.2l-0.1,0L92.3,262L90,236.5L90,236.5z"/>
<path class="st3" d="M24.2,0h16.2v16h14.8V0h16.2v48.6H55.3V32.3H40.4v16.3H24.2L24.2,0L24.2,0L24.2,0z"/>
<path class="st3" d="M92.8,16.1H78.5V0h44.8v16.1h-14.3v32.5H92.8L92.8,16.1L92.8,16.1L92.8,16.1z"/>
<path class="st3" d="M130.5,0h16.9l10.4,17.1L168.2,0h16.9v48.6H169V24.5l-11.2,17.3h-0.3l-11.2-17.3v24.1h-15.9V0L130.5,0z"/>
<path class="st3" d="M193.2,0h16.2v32.5h22.8v16.1h-39.1V0L193.2,0z"/>
<path class="st4" d="M127.9,220.6h39.3l-3.7,41.4l-35.6,9.6v33.2l65.5-18.1l0.5-5.4l7.5-84.1l0.8-8.6h-74.2V220.6L127.9,220.6z"/>
<path class="st4" d="M127.9,155.9L127.9,155.9l77.1,0.1l0.6-7.2l1.5-16.2l0.8-8.6h-80V155.9L127.9,155.9z"/>
</svg>
