<?xml version="1.0" encoding="utf-8"?>
<!-- Generator: Adobe Illustrator 21.1.0, SVG Export Plug-In . SVG Version: 6.00 Build 0)  -->
<svg version="1.1" id="Layer_1" xmlns="http://www.w3.org/2000/svg" xmlns:xlink="http://www.w3.org/1999/xlink" x="0px" y="0px"
	 viewBox="0 0 256 256" style="enable-background:new 0 0 256 256;" xml:space="preserve">
<style type="text/css">
	.st0{fill:#90A9B7;}
	.st1{fill:#FFFFFF;}
</style>
<path class="st0" d="M0,0h256v256H0V0z"/>
<path class="st1" d="M152.4,211.4L172,200c5.2,8.4,11.9,14.6,23.7,14.6c10,0,16.3-5,16.3-11.9c0-8.2-6.5-11.2-17.5-16l-6-2.6
	c-17.4-7.4-28.9-16.7-28.9-36.3c0-18,13.7-31.8,35.2-31.8c15.3,0,26.3,5.3,34.2,19.2l-18.7,12c-4.1-7.4-8.6-10.3-15.5-10.3
	c-7,0-11.5,4.5-11.5,10.3c0,7.2,4.5,10.1,14.8,14.6l6,2.6c20.4,8.8,32,17.7,32,37.8c0,21.7-17,33.5-39.9,33.5
	C173.9,235.9,159.4,225.3,152.4,211.4"/>
<path class="st1" d="M67.3,213.9l19.6-11.9c3.8,6.7,7.2,12.4,15.5,12.4c7.9,0,12.9-3.1,12.9-15.1v-81.8h24.1v82.1
	c0,24.9-14.6,36.3-35.9,36.3C84.2,235.9,73,226,67.3,213.9"/>
</svg>
