<?xml version="1.0" encoding="utf-8"?>
<!-- Generator: Adobe Illustrator 21.1.0, SVG Export Plug-In . SVG Version: 6.00 Build 0)  -->
<svg version="1.1" id="Layer_1" xmlns="http://www.w3.org/2000/svg" xmlns:xlink="http://www.w3.org/1999/xlink" x="0px" y="0px"
	 viewBox="0 0 256 287" style="enable-background:new 0 0 256 287;" xml:space="preserve">
<style type="text/css">
	.st0{fill:#495F6A;}
	.st1{fill:#FFFFFF;}
	.st2{fill:#90A9B7;}
</style>
<path class="st0" d="M8,72.4L129.7,1.5l121.7,70.9V214l-121.7,70.9L8,214V72.4z"/>
<path class="st1" d="M133.1,143.1l113.2-65.2l4.6,131.4l-117.8,71.1V143.1z"/>
<path class="st0" d="M248,74l-0.3,139.3l-118.1,68.5L129,144.8L248,74L248,74z M148.7,156.2l0.3,91.5l39.3-22.9l-0.1-68.9l19.8-11.7
	v69.2l19.8-11.6l0.1-92.6L148.7,156.2L148.7,156.2z"/>
<path class="st2" d="M137.4,2.5c-5.5-3.1-14.2-3.1-19.7,0L9.9,64.5c-5.5,3.1-9.8,10.8-9.8,17v124c0,6.3,4.4,13.9,9.8,17l107.9,62
	c5.5,3.1,14.2,3.1,19.7,0l107.9-62c5.5-3.1,9.8-10.8,9.8-17v-124c0-6.3-4.4-13.9-9.8-17L137.4,2.5L137.4,2.5z M233.1,67.4
	c5.5,3.1,5.5,8.2,0,11.3l-94.4,54.3c-5.5,3.1-14.2,3.1-19.7,0L23.2,77.8c-5.5-3.1-5.5-8.2,0-11.3l94.4-54.3c5.5-3.1,14.2-3.1,19.7,0
	L233.1,67.4L233.1,67.4z M8.5,90.5c0-6.3,4.4-8.8,9.8-5.7l96.6,55.5c5.5,3.1,9.8,10.8,9.8,17v110.1c0,6.3-4.4,8.8-9.8,5.7
	l-96.6-55.5c-5.5-3.1-9.8-10.8-9.8-17V90.5L8.5,90.5z M143.1,271.4c-5.5,3.1-9.8,0.6-9.8-5.7V157.2c0-6.3,4.4-13.9,9.8-17l93.8-53.8
	c5.5-3.1,9.8-0.6,9.8,5.7v108.4c0,6.3-4.4,13.9-9.8,17L143.1,271.4L143.1,271.4z"/>
</svg>
