<?xml version="1.0" encoding="utf-8"?>
<!-- Generator: Adobe Illustrator 21.1.0, SVG Export Plug-In . SVG Version: 6.00 Build 0)  -->
<svg version="1.1" id="Layer_1" xmlns="http://www.w3.org/2000/svg" xmlns:xlink="http://www.w3.org/1999/xlink" x="0px" y="0px"
	 viewBox="0 0 256 256" style="enable-background:new 0 0 256 256;" xml:space="preserve">
<style type="text/css">
	.st0{fill:#90A9B7;}
	.st1{fill:#FFFFFF;}
</style>
<path class="st0" d="M25,0h206c13.8,0,25,11.2,25,25v206c0,13.8-11.2,25-25,25H25c-13.8,0-25-11.2-25-25V25C0,11.2,11.2,0,25,0z"/>
<path class="st1" d="M156.6,33.3h54.1c6.6,0,12,5.4,12,12v88c0,6.6-5.4,12-12,12h-54.1c-6.6,0-12-5.4-12-12v-88
	C144.6,38.7,150,33.3,156.6,33.3z"/>
<path class="st1" d="M45.3,33.3h54.1c6.6,0,12,5.4,12,12v152c0,6.6-5.4,12-12,12H45.3c-6.6,0-12-5.4-12-12v-152
	C33.3,38.7,38.7,33.3,45.3,33.3z"/>
</svg>
